<svg width="25" height="25" viewBox="0 0 25 25" fill="none" xmlns="http://www.w3.org/2000/svg">
<path d="M22.2868 0H2.71318C1.21473 0 0 1.21473 0 2.71318V22.2868C0 23.7853 1.21473 25 2.71318 25H22.2868C23.7853 25 25 23.7853 25 22.2868V2.71318C25 1.21473 23.7853 0 22.2868 0Z" fill="#FF6B00"/>
<path fill-rule="evenodd" clip-rule="evenodd" d="M8.13956 10.2712H10.7558V9.78666C10.7558 9.01147 10.6589 8.04247 10.7558 7.26728C10.8527 5.42619 11.8217 4.2634 14.3411 4.1665L16.8605 4.2634V6.97658C15.7946 6.97658 13.9535 6.58898 13.7597 7.94557V10.2712H16.6667L16.376 13.275H13.7597V20.8332H10.7558V13.275L8.13956 13.1781V10.2712Z" fill="white"/>
<path fill-rule="evenodd" clip-rule="evenodd" d="M25 12.4032L16.8605 4.26367V6.97685C15.7946 6.97685 13.9535 6.58925 13.7597 7.94584V10.2714H16.6667L16.376 13.2753H13.7597V20.8334H10.7558L14.9225 25.0001H22.2868L25 22.2869V12.4032Z" fill="#FF6B00"/>
</svg>
