<svg width="25" height="25" viewBox="0 0 25 25" fill="none" xmlns="http://www.w3.org/2000/svg">
<path d="M4.375 25L20.625 25C23.0412 25 25 23.0412 25 20.625L25 4.375C25 1.95875 23.0412 0 20.625 0L4.375 0C1.95875 0 0 1.95875 0 4.375L0 20.625C0 23.0412 1.95875 25 4.375 25Z" fill="#FF6B00"/>
<path d="M18.4375 8.12514C18.8104 7.93342 19.1409 7.66861 19.4094 7.34649C19.6778 7.02437 19.8787 6.65151 20 6.25014C19.375 6.87514 18.0469 7.08217 18.0469 7.08217C17.5877 6.51788 16.9459 6.13151 16.2324 5.98966C15.5188 5.84782 14.7781 5.95939 14.138 6.30514C13.4978 6.65089 12.9984 7.20915 12.7258 7.88367C12.4532 8.55819 12.4244 9.3067 12.6445 10.0001H12.5C11.2271 9.91573 9.98581 9.56636 8.85574 8.97441C7.72566 8.38247 6.73169 7.561 5.9375 6.56264C5.9375 6.56264 4.0625 9.06264 6.875 10.9376C6.875 10.9376 5.625 10.9376 5.3125 10.6251C5.3125 10.6251 5 12.5001 7.8125 13.7501C7.61626 13.8395 7.40314 13.8858 7.1875 13.8858C6.97186 13.8858 6.75874 13.8395 6.5625 13.7501C6.5625 14.9572 7.82031 15.9376 9.375 15.9376C9.375 16.8009 7.27734 17.5001 4.6875 17.5001C8.75 20.3126 18.4375 19.6876 19.0625 9.06264L20.625 7.50014L18.4375 8.12514Z" fill="white"/>
</svg>
